# xmcd
#
# Track frame offsets: 
#        150
#        17563
#        37609
#        56932
#        71143
#        84604
#        100328
#        122664
#        144211
#        161816
#        182118
#        199127
#        210474
#        229809
#        246723
#        261046
#        279915
#
# Disc length: 3991 seconds
#
# Revision: 0
# Processed by: cddbd v1.5.2PL0 Copyright (c) Steve Scherf et al.
# Submitted via: ExactAudioCopy v0.99pb5
#
DISCID=f40f9511
DTITLE=Various Artist - De 50 Grootste Rock Classics
DYEAR=2008
DGENRE=Rock
TTITLE0=Within Temptation/Ice Queen
TTITLE1=Soul Asylum/Runaway Train
TTITLE2=Spin Doctors/Two Princes
TTITLE3=Electric Light Orchestra/Rock 'n Roll Is King
TTITLE4=Live/The River
TTITLE5=The Calling/Wherever You Will Go
TTITLE6=Bruce Hornsby and The Range/The Way It Is
TTITLE7=Paul Young/I'm Gonna Tear Your Playhouse Down
TTITLE8=The Romantics/Talking In Your Sleep
TTITLE9=Alice Cooper/Poison
TTITLE10=REO Speedwagon/Don't Let Him Go
TTITLE11=Ram Jam/Black Betty
TTITLE12=The Guess Who/Clap For The Wolfman
TTITLE13=Cheap Trick/I Want You To Want Me (Live)
TTITLE14=Nine Days/Absolutely (Story Of A Girl)
TTITLE15=Journey/Don't Stop Believin'
TTITLE16=Living Colour/Love Rears It's Ugly Head
EXTD=
EXTT0=
EXTT1=
EXTT2=
EXTT3=
EXTT4=
EXTT5=
EXTT6=
EXTT7=
EXTT8=
EXTT9=
EXTT10=
EXTT11=
EXTT12=
EXTT13=
EXTT14=
EXTT15=
EXTT16=
PLAYORDER=
